<?xml version="1.0" encoding="UTF-8"?>
<svg version="1.1" xmlns="http://www.w3.org/2000/svg" width="94" height="70">
<path d="M0 0 C3.04386724 -0.08226668 5.07175348 0.02391783 8 1 C8.77403558 5.06368679 9.0984702 8.86425173 9 13 C6.525 12.505 6.525 12.505 4 12 C3.505 9.525 3.505 9.525 3 7 C2.67 8.98 2.34 10.96 2 13 C1.360625 12.814375 0.72125 12.62875 0.0625 12.4375 C-0.9584375 12.2209375 -0.9584375 12.2209375 -2 12 C-2.33 12.33 -2.66 12.66 -3 13 C-5.33294775 13.04241723 -7.66702567 13.04092937 -10 13 C-10.66 13 -11.32 13 -12 13 C-14.66666667 13 -17.33333333 13 -20 13 C-21.7634375 13.0309375 -21.7634375 13.0309375 -23.5625 13.0625 C-27 13 -27 13 -28 12 C-28.04063832 10.33382885 -28.042721 8.66611905 -28 7 C-28.66 7 -29.32 7 -30 7 C-30 8.98 -30 10.96 -30 13 C-30.99 13 -31.98 13 -33 13 C-33 10.03 -33 7.06 -33 4 C-28.25 2.875 -28.25 2.875 -26 4 C-25.38125 3.814375 -24.7625 3.62875 -24.125 3.4375 C-21.41764326 2.88010302 -20.31134891 3.59668102 -18 5 C-17.34 4.34 -16.68 3.68 -16 3 C-13.875 3.375 -13.875 3.375 -12 4 C-11.67 5.32 -11.34 6.64 -11 8 C-10.67 6.68 -10.34 5.36 -10 4 C-6.71303767 3.20046862 -5.28976808 2.90341064 -2 4 C-1.34 2.68 -0.68 1.36 0 0 Z M3 2 C2.67 2.66 2.34 3.32 2 4 C2.66 4 3.32 4 4 4 C3.67 3.34 3.34 2.68 3 2 Z M-24 6 C-24.33 7.32 -24.66 8.64 -25 10 C-24.01 10.33 -23.02 10.66 -22 11 C-21.67 10.01 -21.34 9.02 -21 8 C-21.33 7.34 -21.66 6.68 -22 6 C-22.66 6 -23.32 6 -24 6 Z M-7 6 C-7.33 7.32 -7.66 8.64 -8 10 C-7.01 10.33 -6.02 10.66 -5 11 C-5.33 9.35 -5.66 7.7 -6 6 C-6.33 6 -6.66 6 -7 6 Z " fill="#737373" transform="translate(84,3)"/>
<path d="M0 0 C-0.33 1.32 -0.66 2.64 -1 4 C-2.65 3.67 -4.3 3.34 -6 3 C-6.33 4.32 -6.66 5.64 -7 7 C-4.36 8.98 -1.72 10.96 1 13 C0.51681957 19.52293578 0.51681957 19.52293578 -1.625 21.5 C-4.92364413 22.1944514 -7.71750369 21.63124929 -11 21 C-11.33 19.68 -11.66 18.36 -12 17 C-10.88625 17.185625 -9.7725 17.37125 -8.625 17.5625 C-5.17431139 18.31680657 -5.17431139 18.31680657 -3 17 C-4.1512761 13.77642693 -5.0831722 12.94738085 -8.0625 11.0625 C-11 9 -11 9 -12.0625 6.5 C-11.98347924 3.33916946 -11.21523925 2.21523925 -9 0 C-5.52176885 -1.15941038 -3.54104422 -0.70820884 0 0 Z " fill="#333333" transform="translate(31,48)"/>
<path d="M0 0 C1.32 0 2.64 0 4 0 C4.99 1.98 5.98 3.96 7 6 C7.99 4.02 8.98 2.04 10 0 C11.32 0 12.64 0 14 0 C14 4.29 14 8.58 14 13 C13.01 13 12.02 13 11 13 C10.67 11.68 10.34 10.36 10 9 C9.34 10.32 8.68 11.64 8 13 C7.01 13 6.02 13 5 13 C4.67 12.34 4.34 11.68 4 11 C3.67 11.66 3.34 12.32 3 13 C2.01 13 1.02 13 0 13 C0 8.71 0 4.42 0 0 Z " fill="#737373" transform="translate(24,3)"/>
<path d="M0 0 C0.99 0 1.98 0 3 0 C3.33 1.65 3.66 3.3 4 5 C4.99 4.34 5.98 3.68 7 3 C9.1875 3.375 9.1875 3.375 11 4 C11 4.99 11 5.98 11 7 C10.01 7 9.02 7 8 7 C7.67 8.32 7.34 9.64 7 11 C8.32 10.67 9.64 10.34 11 10 C11 10.99 11 11.98 11 13 C7.33333333 13 3.66666667 13 0 13 C0 8.71 0 4.42 0 0 Z " fill="#737373" transform="translate(39,3)"/>
<path d="M0 0 C1.32 0 2.64 0 4 0 C4 6.93 4 13.86 4 21 C2.68 21 1.36 21 0 21 C0 14.07 0 7.14 0 0 Z " fill="#333333" transform="translate(10,48)"/>
<path d="M0 0 C1.32 0 2.64 0 4 0 C4 6.93 4 13.86 4 21 C2.68 21 1.36 21 0 21 C0 14.07 0 7.14 0 0 Z " fill="#333333" transform="translate(0,48)"/>
<path d="M0 0 C2.97 0 5.94 0 9 0 C9 2.97 9 5.94 9 9 C6.03 9 3.06 9 0 9 C0 6.03 0 3.06 0 0 Z " fill="#FFB900" transform="translate(10,10)"/>
<path d="M0 0 C2.97 0 5.94 0 9 0 C9 2.97 9 5.94 9 9 C6.03 9 3.06 9 0 9 C0 6.03 0 3.06 0 0 Z " fill="#00A4EF" transform="translate(0,10)"/>
<path d="M0 0 C2.97 0 5.94 0 9 0 C9 2.97 9 5.94 9 9 C6.03 9 3.06 9 0 9 C0 6.03 0 3.06 0 0 Z " fill="#7FBA00" transform="translate(10,0)"/>
<path d="M0 0 C2.97 0 5.94 0 9 0 C9 2.97 9 5.94 9 9 C6.03 9 3.06 9 0 9 C0 6.03 0 3.06 0 0 Z " fill="#F25022" transform="translate(0,0)"/>
</svg>
